<svg width="30" height="30" viewBox="0 0 30 30" fill="none" xmlns="http://www.w3.org/2000/svg">
<path d="M8.78763 0.104906C7.19163 0.180206 6.10172 0.434906 5.14892 0.809306C4.16282 1.19361 3.32702 1.70931 2.49542 2.54391C1.66382 3.37851 1.15172 4.21491 0.770124 5.20251C0.400824 6.15741 0.150624 7.24821 0.0801243 8.84511C0.00962433 10.442 -0.00597568 10.9553 0.00182432 15.0287C0.00962432 19.1021 0.0276243 19.6127 0.105024 21.2129C0.181224 22.8086 0.435024 23.8982 0.809424 24.8513C1.19432 25.8374 1.70942 26.6729 2.54432 27.5048C3.37922 28.3367 4.21502 28.8476 5.20502 29.2298C6.15902 29.5985 7.25012 29.8499 8.84672 29.9198C10.4433 29.9897 10.9572 30.0059 15.0294 29.9981C19.1016 29.9903 19.6143 29.9723 21.2142 29.8964C22.8141 29.8205 23.898 29.5649 24.8514 29.1923C25.8375 28.8065 26.6736 28.2923 27.5049 27.4571C28.3362 26.6219 28.848 25.7849 29.2293 24.7967C29.5989 23.8427 29.85 22.7516 29.9193 21.1562C29.9892 19.5551 30.0057 19.0439 29.9979 14.9711C29.9901 10.8983 29.9718 10.3877 29.8959 8.78811C29.82 7.18851 29.5659 6.10221 29.1918 5.14851C28.8063 4.16241 28.2918 3.32751 27.4572 2.49501C26.6226 1.66251 25.785 1.15101 24.7971 0.770607C23.8425 0.401306 22.752 0.149606 21.1554 0.0806064C19.5588 0.0116064 19.0449 -0.00609358 14.9712 0.00170642C10.8975 0.00950642 10.3875 0.0269064 8.78763 0.104906ZM8.96282 27.2213C7.50032 27.1577 6.70622 26.9147 6.17702 26.7113C5.47622 26.4413 4.97702 26.1149 4.44962 25.5926C3.92222 25.0703 3.59822 24.5693 3.32462 23.87C3.11912 23.3408 2.87162 22.5476 2.80322 21.0851C2.72882 19.5044 2.71322 19.0298 2.70452 15.0251C2.69582 11.0204 2.71112 10.5464 2.78042 8.96511C2.84282 7.50381 3.08732 6.70881 3.29042 6.17991C3.56042 5.47821 3.88562 4.97991 4.40912 4.45281C4.93262 3.92571 5.43212 3.60111 6.13202 3.32751C6.66062 3.12111 7.45382 2.87571 8.91572 2.80611C10.4976 2.73111 10.9716 2.71611 14.9757 2.70741C18.9798 2.69871 19.455 2.71371 21.0375 2.78331C22.4988 2.84691 23.2941 3.08901 23.8224 3.29331C24.5235 3.56331 25.0224 3.88761 25.5495 4.41201C26.0766 4.93641 26.4015 5.43411 26.6751 6.13551C26.8818 6.66261 27.1272 7.45551 27.1962 8.91831C27.2715 10.5002 27.2886 10.9745 27.2958 14.9783C27.303 18.9821 27.2889 19.4576 27.2196 21.0383C27.1557 22.5008 26.9133 23.2952 26.7096 23.825C26.4396 24.5255 26.1141 25.025 25.5903 25.5518C25.0665 26.0786 24.5676 26.4032 23.8674 26.6768C23.3394 26.8829 22.5453 27.1289 21.0846 27.1985C19.5027 27.2729 19.0287 27.2885 15.0231 27.2972C11.0175 27.3059 10.545 27.2897 8.96312 27.2213M21.1911 6.98301C21.1917 7.33904 21.2979 7.6869 21.4962 7.98259C21.6945 8.27828 21.976 8.50852 22.3052 8.64419C22.6344 8.77986 22.9964 8.81487 23.3454 8.74478C23.6945 8.6747 24.015 8.50267 24.2662 8.25046C24.5175 7.99825 24.6884 7.67718 24.7572 7.32786C24.826 6.97854 24.7897 6.61666 24.6528 6.28799C24.5159 5.95932 24.2846 5.67862 23.9882 5.4814C23.6918 5.28418 23.3436 5.1793 22.9875 5.18001C22.5102 5.18096 22.0529 5.37144 21.716 5.70955C21.3791 6.04766 21.1903 6.50572 21.1911 6.98301ZM7.29812 15.0149C7.30652 19.2689 10.7613 22.7096 15.0144 22.7015C19.2675 22.6934 22.7106 19.2389 22.7025 14.9849C22.6944 10.7309 19.2387 7.28931 14.985 7.29771C10.7313 7.30611 7.29002 10.7615 7.29812 15.0149ZM9.99992 15.0095C9.99797 14.0206 10.2893 13.0533 10.8371 12.2299C11.3849 11.4066 12.1645 10.7642 13.0774 10.3839C13.9903 10.0037 14.9955 9.90266 15.9658 10.0937C16.9361 10.2847 17.828 10.7591 18.5286 11.457C19.2293 12.1549 19.7072 13.0449 19.9021 14.0144C20.0969 14.984 19.9999 15.9895 19.6233 16.9039C19.2466 17.8183 18.6073 18.6005 17.7862 19.1515C16.965 19.7026 15.9988 19.9977 15.0099 19.9997C14.3533 20.0011 13.7028 19.8731 13.0956 19.623C12.4884 19.373 11.9365 19.0058 11.4712 18.5424C11.006 18.079 10.6366 17.5285 10.3842 16.9223C10.1317 16.3161 10.0011 15.6662 9.99992 15.0095Z" fill="white"/>
</svg>
